# xmcd
# 
# Track frame offsets:
#     150
#     13955
#     25660
#     44414
# 
# Disc length: 790
# 
# Revision: 0
# Processed by: cddbd v1.5.2PL0 Copyright (c) Steve Scherf et al.
# Submitted via: fre:ac v1.0.17
# 
DISCID=2a031404
DTITLE=CHICO - In Case Of Emergency
DYEAR=2008
DGENRE=Alternative
TTITLE0=No Match
TTITLE1=Leftway Twist
TTITLE2=I.C.E.
TTITLE3=Idle Fiesta Invitation
EXTD=
EXTT0=
EXTT1=
EXTT2=
EXTT3=
PLAYORDER=
